<svg xmlns="http://www.w3.org/2000/svg" viewBox="0 0 512 512">
  <defs>
    <linearGradient id="bg" x1="0" x2="1" y1="0" y2="1">
      <stop offset="0%" stop-color="#103d35"/>
      <stop offset="100%" stop-color="#1a5c50"/>
    </linearGradient>
  </defs>
  <rect width="512" height="512" rx="120" fill="url(#bg)"/>
  <path d="M169 145c0-18 14-32 32-32h87c18 0 32 14 32 32v18h11c28 0 50 22 50 50v166c0 11-9 20-20 20h-17v23c0 18-14 32-32 32s-32-14-32-32v-23h-79v23c0 18-14 32-32 32s-32-14-32-32v-23h-17c-11 0-20-9-20-20V195c0-28 22-50 50-50h19v-18Zm40 18v52h72v-52h-72Zm-36 100c-16 0-29 13-29 29s13 29 29 29 29-13 29-29-13-29-29-29Zm146 0c-16 0-29 13-29 29s13 29 29 29 29-13 29-29-13-29-29-29Z" fill="#f4efe4"/>
  <path d="M367 136c24 10 41 34 41 62v23h-22v-23c0-18-10-34-25-42l6-20Z" fill="#f0b46c"/>
</svg>
